<svg width="99" height="107" viewBox="0 0 99 107" fill="none" xmlns="http://www.w3.org/2000/svg">
<path d="M49.5833 0.75C40.4383 0.75 32.3783 6.795 29.795 15.5783C27.0567 14.3383 24.1633 13.6667 21.1667 13.6667C15.6855 13.6667 10.4289 15.844 6.55313 19.7198C2.67737 23.5955 0.5 28.8522 0.5 34.3333C0.512241 38.9102 2.03964 43.3541 4.84371 46.9714C7.64779 50.5886 11.5707 53.1756 16 54.3283V91.1667H83.1667V54.3283C92.26 51.9517 98.6667 43.7367 98.6667 34.3333C98.6667 28.8522 96.4893 23.5955 92.6135 19.7198C88.7378 15.844 83.4811 13.6667 78 13.6667C75.0033 13.6667 72.11 14.3383 69.3717 15.5783C66.7883 6.795 58.7283 0.75 49.5833 0.75M47 47.25H52.1667V83.4167H47V47.25ZM31.5 57.5833H36.6667V83.4167H31.5V57.5833M62.5 57.5833H67.6667V83.4167H62.5V57.5833ZM16 96.3333V101.5C16 102.87 16.5443 104.184 17.5133 105.153C18.4822 106.122 19.7964 106.667 21.1667 106.667H78C79.3703 106.667 80.6844 106.122 81.6534 105.153C82.6223 104.184 83.1667 102.87 83.1667 101.5V96.3333H16Z" fill="#F24E1E"/>
</svg>
